<svg width="30" height="30" viewBox="0 0 30 30" fill="none" xmlns="http://www.w3.org/2000/svg">
<g clip-path="url(#clip0_23_2)">
<g clip-path="url(#clip1_23_2)">
<rect x="30" y="30" width="30" height="30" rx="2" transform="rotate(-180 30 30)" fill="#101010"/>
<path d="M20 22.5C18.0109 22.5 16.1032 21.7098 14.6967 20.3033C13.2902 18.8968 12.5 16.9891 12.5 15C12.5 13.0109 13.2902 11.1032 14.6967 9.6967C16.1032 8.29018 18.0109 7.5 20 7.5C21.9891 7.5 23.8968 8.29018 25.3033 9.6967C26.7098 11.1032 27.5 13.0109 27.5 15C27.5 16.9891 26.7098 18.8968 25.3033 20.3033C23.8968 21.7098 21.9891 22.5 20 22.5ZM8.75 21.25C6.875 21.25 5.625 18.4512 5.625 15C5.625 11.5488 6.875 8.75 8.75 8.75C10.625 8.75 11.875 11.5488 11.875 15C11.875 18.4512 10.625 21.25 8.75 21.25ZM3.75 20.625C3.275 20.625 2.86 19.5912 2.65 17.8175L2.59125 17.2637L2.5675 16.97L2.53 16.3525L2.5175 16.0287L2.5025 15.3525L2.5 15L2.5025 14.6475L2.5175 13.9713L2.53 13.6462L2.5675 13.03L2.5925 12.7363L2.64875 12.1825C2.86 10.4075 3.27375 9.375 3.75 9.375C4.225 9.375 4.64 10.4088 4.85 12.1825L4.90875 12.7363C4.91736 12.8341 4.92527 12.932 4.9325 13.03L4.97 13.6475C4.97484 13.7554 4.979 13.8633 4.9825 13.9713L4.9975 14.6475V15.3525L4.9825 16.0287L4.97 16.3538L4.9325 16.97L4.9075 17.2637L4.85125 17.8175C4.64 19.5925 4.22625 20.625 3.75 20.625Z" fill="white"/>
</g>
</g>
<defs>
<clipPath id="clip0_23_2">
<rect width="30" height="30" fill="white"/>
</clipPath>
<clipPath id="clip1_23_2">
<rect x="30" y="30" width="30" height="30" rx="2" transform="rotate(-180 30 30)" fill="white"/>
</clipPath>
</defs>
</svg>
